<?xml version="1.0" encoding="utf-8"?>
<!-- Generator: Adobe Illustrator 16.0.0, SVG Export Plug-In . SVG Version: 6.00 Build 0)  -->
<!DOCTYPE svg PUBLIC "-//W3C//DTD SVG 1.1//EN" "http://www.w3.org/Graphics/SVG/1.1/DTD/svg11.dtd">
<svg version="1.1" xmlns="http://www.w3.org/2000/svg" xmlns:xlink="http://www.w3.org/1999/xlink" x="0px" y="0px"
	 width="477.773px" height="226.771px" viewBox="0 0 477.773 226.771" enable-background="new 0 0 477.773 226.771"
	 xml:space="preserve">
<g id="GEO_Logo">
	<path id="Rahmen_1_" fill-rule="evenodd" clip-rule="evenodd" fill="#006699" d="M323.293,134.498 M455.095,0
		c12.516,0,22.631,10.158,22.631,22.688l0.047,181.396c0,12.53-10.193,22.688-22.709,22.688H273.679
		c-12.516,0-22.678-10.157-22.678-22.688l0.016-181.396C251.017,10.158,261.146,0,273.663,0H455.095z"/>
	<path id="Hintergrund" fill-rule="evenodd" clip-rule="evenodd" fill="#FFFFFF" d="M260.071,112.147l0.016-89.458
		c0-7.509,6.09-13.618,13.575-13.618h181.433c7.477,0,13.56,6.109,13.56,13.618l0.047,89.458"/>
	<g id="Erde">
		
			<circle id="Umkreis_1_" fill="#006699" stroke="#FFFFFF" stroke-width="3" stroke-miterlimit="2" cx="364.472" cy="109.509" r="102.926"/>
		<path id="Meridian1_1_" fill="none" stroke="#FFFFFF" stroke-width="3" stroke-miterlimit="2" d="M316.077,18.655
			c3.113,0.951,6.335,4.646,8.263,6.963c3.261,3.91,6.343,7.893,9.257,12.098c6.357,9.184,12.538,18.614,18.222,28.231
			c13.46,22.778,25.95,46.01,38.371,69.359c5.789,10.892,10.594,22.319,15.841,33.468c2.552,5.416,4.613,10.567,6.673,16.663
			c2.057,6.094,3.866,10.993,1.966,13.946"/>
		<path id="Meridian2" fill="none" stroke="#FFFFFF" stroke-width="3" stroke-miterlimit="2" d="M290.631,37.807
			c6.426-4.539,12.129-7.192,20.139-7.807c7.533-0.58,16.003,0.654,23.192,2.926c15.919,5.025,30.224,11.948,44.201,21.061
			c20.945,13.659,39.127,30.817,53.956,50.937c12.461,16.911,28.177,44.949,15.359,65.446"/>
		<path id="Merdian3" fill="none" stroke="#FFFFFF" stroke-width="3" stroke-miterlimit="2" d="M344.364,8.546
			c-10.505,2.418-14.372,18.95-16.018,27.725c-2.316,12.349-2.278,24.998-2.278,37.508c0,25.018,4.974,49.933,10.785,74.141
			c3.057,12.741,7.669,25.661,13.529,37.381c4.771,9.536,12.944,27.054,25.852,26.464"/>
		<path id="Meridian4_2_" fill="none" stroke="#FFFFFF" stroke-width="3" stroke-miterlimit="2" d="M265.636,80.687
			c2.437-5.393,4.778-10.623,7.704-15.462c2.924-4.839,6.438-9.285,11.218-13.111c5.054-4.043,10.391-7.555,16.022-10.506
			c5.629-2.95,11.557-5.336,17.787-7.135c11.982-3.453,24.75-5.157,37.507-5.079c12.757,0.079,25.508,1.942,37.459,5.619
			c15.231,4.687,30.015,11.599,42.44,21.204c12.429,9.605,22.682,21.711,28.388,37.54c0,0,1.376,3.396,3.106,10.551"/>
		<path id="Meridian5" fill="none" stroke="#FFFFFF" stroke-width="3" stroke-miterlimit="2" d="M384.349,8.5
			c-24.182-4.531-47.829,12-61.479,30.899c-14.809,20.501-24.613,42.975-29.226,67.888c-6.308,34.075-2.568,79.533,31.589,97.352"/>
		<path id="Meridian6" fill="none" stroke="#FFFFFF" stroke-width="3" stroke-miterlimit="2" d="M272.471,155.707
			c-22.695-48.638,14.823-100.779,56.619-123.769c33.758-18.57,80.935-22.395,109.985,6.662"/>
		<path id="Äquator" fill="none" stroke="#FFFFFF" stroke-width="3" stroke-miterlimit="2" d="M275.283,160.915
			c29.448,44.173,97.174,27.953,135.168,5.603c28.415-16.717,64.471-54.087,51.544-90.505"/>
	</g>
	<g id="GEO_1_">
		<g id="Löschen">
			<rect x="296.428" y="82.314" fill-rule="evenodd" clip-rule="evenodd" fill="#006699" width="132.751" height="43.75"/>
		</g>
		<g id="GEO_Außen">
			<g>
				<g>
					<path fill="#006699" d="M308.58,140.684c-4.852,0-9.09-0.734-12.599-2.184c-3.634-1.5-6.658-3.675-8.989-6.463
						c-2.283-2.729-3.952-5.998-4.958-9.716c-0.943-3.476-1.421-7.343-1.421-11.491V97.516c0-4.146,0.479-8.014,1.422-11.493
						c1.006-3.715,2.674-6.984,4.958-9.715c2.33-2.786,5.354-4.96,8.987-6.462c3.51-1.449,7.749-2.184,12.6-2.184
						c9.231,0,16.22,2.134,20.772,6.344c4.62,4.276,7.041,10.372,7.195,18.119l0.087,4.337h-21.149l-0.176-4.068
						c-0.103-2.376-1.001-3.372-1.667-3.913c-1.255-1.019-2.848-1.515-4.865-1.515c-1.472,0-2.655,0.222-3.518,0.659
						c-0.86,0.436-1.53,0.997-2.045,1.714c-0.594,0.826-1.011,1.767-1.276,2.879c-0.313,1.316-0.473,2.723-0.473,4.182v15.269
						c0,1.495,0.149,2.948,0.444,4.321c0.246,1.148,0.646,2.121,1.227,2.978c0.498,0.735,1.144,1.311,1.976,1.759
						c0.793,0.429,1.991,0.654,3.47,0.654c2.665,0,4.604-0.502,5.763-1.494c0.72-0.615,1.174-1.633,1.358-3.036h-12.646V97.174
						h33.592v16.82c0,8.521-2.535,15.192-7.534,19.829C324.203,138.375,317.295,140.684,308.58,140.684z"/>
				</g>
				<g>
					<polygon fill="#006699" points="339.118,139.566 339.118,68.965 389.566,68.965 389.566,87.803 359.969,87.803 359.969,94.381 
						385.057,94.381 385.057,112.753 359.969,112.753 359.969,120.729 389.566,120.729 389.566,139.566 					"/>
				</g>
				<g>
					<path fill="#006699" d="M417.85,140.684c-4.616,0-8.721-0.674-12.199-2.002c-3.619-1.382-6.654-3.398-9.022-5.994
						c-2.345-2.564-4.091-5.679-5.188-9.253c-1.034-3.368-1.559-7.171-1.559-11.302V98.54c0-4.068,0.475-7.953,1.412-11.546
						c0.994-3.817,2.643-7.196,4.899-10.042c2.308-2.911,5.309-5.22,8.921-6.862c3.551-1.612,7.835-2.429,12.736-2.429
						c5.095,0,9.478,0.817,13.026,2.428c3.661,1.665,6.626,4.012,8.817,6.979c2.109,2.858,3.607,6.231,4.454,10.026
						c0.783,3.522,1.18,7.373,1.18,11.446v13.592c0,3.769-0.443,7.348-1.318,10.636c-0.937,3.521-2.513,6.657-4.685,9.321
						c-2.238,2.742-5.202,4.896-8.812,6.404C427.03,139.947,422.769,140.684,417.85,140.684z M417.85,86.965
						c-2.206,0-3.364,0.366-3.947,0.673c-0.814,0.431-1.416,0.958-1.834,1.608c-0.499,0.776-0.824,1.685-0.994,2.778
						c-0.227,1.45-0.341,3.015-0.341,4.653v15.362c0,1.514,0.136,2.952,0.404,4.275c0.224,1.106,0.591,2.045,1.124,2.873
						c0.406,0.634,0.986,1.133,1.776,1.534c0.593,0.3,1.734,0.658,3.812,0.658c1.423,0,2.582-0.215,3.35-0.623
						c0.77-0.407,1.35-0.918,1.772-1.561c0.507-0.771,0.876-1.722,1.096-2.821c0.271-1.364,0.408-2.824,0.408-4.335V96.678
						c0-1.629-0.115-3.194-0.342-4.653c-0.178-1.136-0.509-2.096-1.011-2.933c-0.378-0.627-0.901-1.101-1.646-1.488
						C420.917,87.313,419.828,86.965,417.85,86.965z"/>
				</g>
			</g>
		</g>
		<g id="GEO_Innen">
			<path fill="#FFFFFF" d="M326.22,130.706c-4.116,3.817-9.996,5.726-17.64,5.726c-4.312,0-7.972-0.621-10.976-1.862
				c-3.006-1.241-5.456-2.994-7.35-5.26c-1.896-2.265-3.268-4.965-4.116-8.1c-0.85-3.134-1.274-6.594-1.274-10.381V97.516
				c0-3.785,0.424-7.246,1.274-10.38c0.848-3.133,2.22-5.833,4.116-8.1c1.895-2.265,4.344-4.018,7.35-5.26
				c3.004-1.241,6.664-1.862,10.976-1.862c8.166,0,14.127,1.738,17.885,5.213c3.756,3.477,5.699,8.504,5.831,15.082h-12.74
				c-0.132-3.04-1.21-5.384-3.234-7.029c-2.026-1.644-4.542-2.467-7.546-2.467c-2.156,0-3.969,0.373-5.439,1.117
				c-1.47,0.745-2.663,1.754-3.577,3.026c-0.916,1.273-1.568,2.732-1.96,4.375c-0.392,1.646-0.588,3.368-0.588,5.167v15.269
				c0,1.801,0.179,3.538,0.539,5.214c0.358,1.676,0.98,3.165,1.862,4.469c0.882,1.303,2.041,2.343,3.479,3.119
				c1.436,0.777,3.266,1.164,5.488,1.164c3.724,0,6.566-0.838,8.526-2.514s2.94-4.282,2.94-7.82v-2.7h-12.74v-11.172h25.088v12.568
				C332.394,121.319,330.336,126.889,326.22,130.706z"/>
			<path fill="#FFFFFF" d="M385.314,135.314H343.37V73.217h41.944v10.334h-29.597v15.082h25.088v9.869h-25.088v16.479h29.597
				V135.314z"/>
			<path fill="#FFFFFF" d="M441.076,112.132c0,3.415-0.392,6.596-1.176,9.543c-0.784,2.949-2.075,5.525-3.871,7.728
				c-1.798,2.204-4.182,3.926-7.154,5.167c-2.974,1.241-6.648,1.862-11.024,1.862c-4.116,0-7.678-0.575-10.683-1.722
				c-3.006-1.148-5.473-2.777-7.398-4.888c-1.929-2.109-3.35-4.655-4.264-7.634c-0.915-2.979-1.372-6.331-1.372-10.055V98.54
				c0-3.724,0.425-7.215,1.274-10.474c0.849-3.259,2.221-6.082,4.116-8.472c1.894-2.389,4.344-4.267,7.35-5.633
				c3.005-1.364,6.664-2.048,10.977-2.048c4.508,0,8.264,0.684,11.27,2.048c3.004,1.366,5.39,3.244,7.154,5.633
				c1.764,2.39,3.004,5.199,3.724,8.425c0.718,3.228,1.078,6.735,1.078,10.521V112.132z M428.728,96.678
				c0-1.862-0.132-3.631-0.393-5.307c-0.262-1.676-0.784-3.165-1.567-4.469c-0.784-1.303-1.896-2.327-3.332-3.072
				c-1.438-0.745-3.3-1.117-5.586-1.117c-2.484,0-4.459,0.389-5.93,1.164c-1.47,0.777-2.613,1.801-3.43,3.073
				c-0.817,1.272-1.356,2.746-1.617,4.422c-0.262,1.676-0.392,3.445-0.392,5.307v15.362c0,1.801,0.162,3.507,0.489,5.121
				c0.326,1.614,0.897,3.058,1.716,4.329c0.815,1.272,1.96,2.281,3.43,3.025c1.47,0.745,3.381,1.117,5.733,1.117
				c2.155,0,3.935-0.372,5.341-1.117c1.404-0.745,2.514-1.737,3.332-2.979c0.815-1.241,1.387-2.684,1.715-4.329
				c0.326-1.644,0.49-3.366,0.49-5.167V96.678z"/>
		</g>
	</g>
</g>
<g id="Schrift_ENG" display="none">
	<text transform="matrix(1 0 0 1 497.9956 173.8145)" display="inline"><tspan x="0" y="0" fill="#666666" font-family="'TUHeadline-Bold'" font-size="31">RESEARCH GROUPS</tspan><tspan x="0" y="33" fill="#666666" font-family="'TUHeadline-Bold'" font-size="31">PHOTOGRAMMETRY &amp; REMOTE SENSING</tspan></text>
	<text id="DEPARTMENT_FÜR_GEODÄSIE_UND_GEOINFORMATION" transform="matrix(1 0 0 1 497.9956 88.8145)" display="inline"><tspan x="0" y="0" fill="#666666" font-family="'TUHeadline-Bold'" font-size="31">DEPARTMENT FOR GEODESY</tspan><tspan x="0" y="33" fill="#666666" font-family="'TUHeadline-Bold'" font-size="31">AND GEOINFORMATION</tspan></text>
	
		<text transform="matrix(1 0 0 1 497.9956 39.8145)" display="inline" fill="#666666" font-family="'TUHeadline-Bold'" font-size="31">VIENNA UNIVERSITY OF TECHNOLOGY</text>
</g>
<g id="Schrift_DEU_copy" display="none">
	<text transform="matrix(1 0 0 1 497.9956 173.8145)" display="inline"><tspan x="0" y="0" fill="#666666" font-family="'TUHeadline-Bold'" font-size="31">FORSCHUNGSGRUPPEN</tspan><tspan x="0" y="33" fill="#666666" font-family="'TUHeadline-Bold'" font-size="31">PHOTOGRAMMETRIE &amp; FERNERKUNDUNG</tspan></text>
	<text transform="matrix(1 0 0 1 497.9956 88.8145)" display="inline"><tspan x="0" y="0" fill="#666666" font-family="'TUHeadline-Bold'" font-size="31">DEPARTMENT FÜR GEODÄSIE</tspan><tspan x="0" y="33" fill="#666666" font-family="'TUHeadline-Bold'" font-size="31">UND GEOINFORMATION</tspan></text>
	
		<text transform="matrix(1 0 0 1 497.9956 39.8145)" display="inline" fill="#666666" font-family="'TUHeadline-Bold'" font-size="31">TECHNISCHE UNIVERSITÄT WIEN</text>
</g>
<g id="TU_Wien_Logo">
	<path id="Hintergrund_1_" fill-rule="evenodd" clip-rule="evenodd" fill="#FFFFFF" d="M73.32,133.97 M201.826,2.835
		c12.203,0,22.065,9.904,22.065,22.122l0.046,176.86c0,12.217-9.938,22.12-22.141,22.12H24.946c-12.204,0-22.112-9.903-22.112-22.12
		l0.016-176.86c0-12.218,9.876-22.122,22.08-22.122H201.826z"/>
	<path id="TU_Wien_Logo_1_" fill-rule="evenodd" clip-rule="evenodd" fill="#006699" d="M162.202,110.614
		c0.369-0.067,0.642-0.111,1.001-0.197c9.115-2.312,15.906-11.094,15.906-20.86L178.9,22.78h24.697v67.127
		c0.023,23.328-17.691,42.728-40.394,45.125l-0.996,0.103L162.202,110.614z M154.854,135.14l-1.281-0.108
		c-22.7-2.37-40.252-21.55-40.252-44.878V22.78h24.54l-0.04,66.776c0,9.766,6.791,18.548,15.903,20.86
		c0.401,0.097,0.712,0.161,1.122,0.233L154.854,135.14z M94.912,203.558v-39.909H87.12v39.909H94.912z M147.888,203.558v-6.95
		h-18.497v-9.697h15.751v-6.951h-15.751V170.6h18.497v-6.951h-26.289v39.909H147.888z M203.706,203.558v-39.909h-7.792v24.438
		l-15.807-24.438h-6.951v39.909h7.792v-24.495l15.807,24.495H203.706z M68.328,164.095H60.2l-6.221,25.168l-7.287-25.168h-5.829
		l-7.287,25.168l-6.166-25.168h-8.127l10.65,39.909h6.501l7.343-24.215l7.343,24.215h6.502L68.328,164.095z M17.435,22.78h84.691
		v24.213H17.435V22.78z M48.08,134.498V54.036h24.213v80.462H48.08z M204.094,0c12.516,0,22.631,10.158,22.631,22.688l0.047,181.396
		c0,12.53-10.193,22.688-22.709,22.688H22.678C10.162,226.771,0,216.614,0,204.084L0.016,22.688C0.016,10.158,10.146,0,22.662,0
		H204.094z"/>
</g>
</svg>
